<svg xmlns="http://www.w3.org/2000/svg" viewBox="0 0 1200 630" width="1200" height="630">
  <defs>
    <linearGradient id="bg" x1="0%" y1="0%" x2="100%" y2="100%">
      <stop offset="0%" stop-color="#0e0e1a"/>
      <stop offset="100%" stop-color="#1a1a2e"/>
    </linearGradient>
    <linearGradient id="glow" x1="0%" y1="0%" x2="100%" y2="100%">
      <stop offset="0%" stop-color="#e94560"/>
      <stop offset="100%" stop-color="#533483"/>
    </linearGradient>
  </defs>
  <rect width="1200" height="630" fill="url(#bg)"/>
  <!-- Sigil watermark bottom-right -->
  <g transform="translate(880,260) scale(2.4)" opacity="0.1">
    <circle cx="50" cy="50" r="46" fill="none" stroke="url(#glow)" stroke-width="1.4"/>
    <circle cx="50" cy="50" r="36" fill="none" stroke="#533483" stroke-width="0.9" opacity="0.7"/>
    <polygon points="50,12 60,42 92,42 66,60 76,90 50,72 24,90 34,60 8,42 40,42" fill="none" stroke="#533483" stroke-width="1" opacity="0.85"/>
    <circle cx="50" cy="50" r="4" fill="#e94560"/>
  </g>
  <!-- Small sigil top-left + brand mark -->
  <g transform="translate(80,90)">
    <circle cx="22" cy="22" r="20" fill="none" stroke="url(#glow)" stroke-width="1.5"/>
    <circle cx="22" cy="22" r="14" fill="none" stroke="#533483" stroke-width="0.9" opacity="0.7"/>
    <polygon points="22,5 26,18 39,18 28,26 32,40 22,32 12,40 16,26 5,18 18,18" fill="none" stroke="#e94560" stroke-width="1" opacity="0.9"/>
    <circle cx="22" cy="22" r="2" fill="#e94560"/>
  </g>
  <text x="125" y="120" font-family="Fraunces, Georgia, serif" font-size="32" font-weight="500" fill="#f2eee6" letter-spacing="-0.6">Workflow</text>
  <text x="125" y="148" font-family="IBM Plex Mono, monospace" font-size="13" fill="#7a7668" letter-spacing="2">· tinyassets.io ·</text>
  <!-- Hero -->
  <text x="80" y="320" font-family="Fraunces, Georgia, serif" font-size="100" font-weight="500" fill="#f2eee6" letter-spacing="-3.5">Summon the</text>
  <text x="80" y="430" font-family="Fraunces, Georgia, serif" font-style="italic" font-size="120" font-weight="500" fill="#e94560" letter-spacing="-3.5">daemon.</text>
  <text x="80" y="540" font-family="IBM Plex Sans, sans-serif" font-size="22" fill="#b9b4a6">Design custom multi-step AI workflows. Real execution, not simulation.</text>
  <text x="80" y="580" font-family="IBM Plex Mono, monospace" font-size="14" fill="#7a7668" letter-spacing="1.5">· zero install · paste one URL · MIT + CC0 ·</text>
</svg>
